<svg xmlns="http://www.w3.org/2000/svg" width="33.892" height="33.892" viewBox="0 0 33.892 33.892">
    <defs>
        <style>.a{fill:current;}</style>
    </defs>
    <path class="a"
          d="M16.946,0A16.946,16.946,0,1,0,33.892,16.946,16.946,16.946,0,0,0,16.946,0Zm0,31.773A14.828,14.828,0,1,1,31.773,16.946,14.828,14.828,0,0,1,16.946,31.773Z"/>
    <path class="a"
          d="M180.336,149.782h5.782a1.445,1.445,0,0,1,1.445,1.445h2.891a4.336,4.336,0,0,0-4.336-4.336h-1.445V144h-2.891v2.891h-1.445a4.336,4.336,0,1,0,0,8.672h5.782a1.445,1.445,0,1,1,0,2.891h-5.782a1.445,1.445,0,0,1-1.445-1.445H176a4.336,4.336,0,0,0,4.336,4.336h1.445v2.891h2.891v-2.891h1.445a4.336,4.336,0,1,0,0-8.672h-5.782a1.445,1.445,0,0,1,0-2.891Z"
          transform="translate(-166.281 -137.172)"/>
</svg>