<svg xmlns="http://www.w3.org/2000/svg" width="34.891" height="33.546" viewBox="0 0 34.891 33.546">
    <defs>
        <style>.a{fill:current;}</style>
    </defs>
    <g transform="translate(0 -9.872)">
        <g transform="translate(0 9.872)">
            <path class="a"
                  d="M18.536,33.776V21.791a4.445,4.445,0,0,0,.583.359,5.6,5.6,0,0,0,2.556.55c5.054,0,11.88-4.883,12.771-5.534a1.092,1.092,0,0,0,0-1.759c-1.053-.771-10.424-7.466-15.327-4.984A4.391,4.391,0,0,0,17.446,11.9a4.4,4.4,0,0,0-1.674-1.474C10.869,7.936,1.5,14.636.445,15.407a1.093,1.093,0,0,0,0,1.76c.89.652,7.717,5.534,12.771,5.534a5.612,5.612,0,0,0,2.556-.55,4.566,4.566,0,0,0,.583-.359V33.777c-9.63.377-12.918,5.279-13.827,7.46H0v2.181H34.891V41.237H32.4C31.495,39.055,28.2,34.152,18.536,33.776ZM18.6,15.068A3.775,3.775,0,0,1,20.1,12.3a3.447,3.447,0,0,1,1.565-.288c2.825,0,7.165,2.229,10.223,4.255-3.7,2.455-9.289,5.13-11.787,3.862-.844-.427-1.344-1.794-1.506-2.884h5.388V15.068Zm-2.307,2.182c-.162,1.089-.663,2.463-1.5,2.892C12.3,21.4,6.706,18.709,3,16.254c3.7-2.455,9.288-5.235,11.787-3.966a3.8,3.8,0,0,1,1.506,2.78H10.9v2.181ZM5.008,41.236c1.253-2.181,4.554-5.452,12.479-5.452,7.941,0,11.213,3.271,12.451,5.452Z"
                  transform="translate(0 -9.872)"/>
        </g>
    </g>
</svg>